<svg xmlns="http://www.w3.org/2000/svg" viewBox="0 0 492 492" width="492" height="492">
	<style>
		tspan { white-space:pre }
		.shp0 { fill: #ffffff } 
	</style>
	<g id="Layer">
		<g id="Layer">
			<path id="Layer" class="shp0" d="M300.19 246L484.14 62.04C489.2 56.98 491.99 50.22 492 43.02C492 35.81 489.21 29.04 484.14 23.99L468.02 7.87C462.95 2.8 456.2 0.02 448.98 0.02C441.78 0.02 435.03 2.8 429.96 7.87L246.01 191.82L62.05 7.87C56.99 2.8 50.23 0.02 43.02 0.02C35.82 0.02 29.06 2.8 24 7.87L7.87 23.99C-2.62 34.48 -2.62 51.56 7.87 62.04L191.83 246L7.87 429.95C2.81 435.02 0.02 441.78 0.02 448.98C0.02 456.19 2.81 462.94 7.87 468.01L24 484.13C29.06 489.2 35.82 491.98 43.02 491.98C50.22 491.98 56.98 489.2 62.04 484.13L246 300.18L429.96 484.13C435.02 489.2 441.78 491.98 448.98 491.98L448.99 491.98C456.19 491.98 462.95 489.2 468.02 484.13L484.14 468.01C489.2 462.95 491.99 456.19 491.99 448.98C491.99 441.78 489.2 435.02 484.14 429.96L300.19 246Z" />
		</g>
	</g>
</svg>